# MagicaVoxel @ Ephtracy

# material
mtllib Player.mtl
usemtl palette

# normals
vn -1 0 0
vn 1 0 0
vn 0 0 1
vn 0 0 -1
vn 0 -1 0
vn 0 1 0

# texcoords
vt 0.0292969 0.5
vt 0.0605469 0.5
vt 0.216797 0.5
vt 0.939453 0.5

# verts
v -3.5 1 3.5
v -3.5 1 -3.5
v -3.5 2 3.5
v -3.5 2 -3.5
v -2.5 0 2.5
v -2.5 0 1.5
v -2.5 0 -1.5
v -2.5 0 -2.5
v -2.5 1 2.5
v -2.5 1 1.5
v -2.5 1 -1.5
v -2.5 1 -2.5
v -2.5 2 2.5
v -2.5 2 -2.5
v -2.5 3 2.5
v -2.5 3 1.5
v -2.5 3 -1.5
v -2.5 3 -2.5
v -2.5 4 1.5
v -2.5 4 0.5
v -2.5 4 -0.5
v -2.5 4 -1.5
v -2.5 5 0.5
v -2.5 5 -0.5
v -1.5 3 2.5
v -1.5 3 1.5
v -1.5 3 -1.5
v -1.5 3 -2.5
v -1.5 4 2.5
v -1.5 4 1.5
v -1.5 4 0.5
v -1.5 4 -0.5
v -1.5 4 -1.5
v -1.5 4 -2.5
v -1.5 5 1.5
v -1.5 5 0.5
v -1.5 5 -0.5
v -1.5 5 -1.5
v -0.5 5 0.5
v -0.5 5 -0.5
v -0.5 6 0.5
v -0.5 6 -0.5
v -0.5 1 0.5
v -0.5 1 -0.5
v -0.5 2 0.5
v -0.5 2 -0.5
v -0.5 3 1.5
v -0.5 3 0.5
v -0.5 3 -0.5
v -0.5 3 -1.5
v -0.5 4 1.5
v -0.5 4 0.5
v -0.5 4 -0.5
v -0.5 4 -1.5
v 0.5 0 2.5
v 0.5 0 1.5
v 0.5 0 -1.5
v 0.5 0 -2.5
v 0.5 1 3.5
v 0.5 1 2.5
v 0.5 1 1.5
v 0.5 1 0.5
v 0.5 1 -0.5
v 0.5 1 -1.5
v 0.5 1 -2.5
v 0.5 1 -3.5
v 0.5 2 3.5
v 0.5 2 2.5
v 0.5 2 1.5
v 0.5 2 0.5
v 0.5 2 -0.5
v 0.5 2 -1.5
v 0.5 2 -2.5
v 0.5 2 -3.5
v 0.5 3 1.5
v 0.5 3 0.5
v 0.5 3 -0.5
v 0.5 3 -1.5
v 0.5 4 2.5
v 0.5 4 1.5
v 0.5 4 0.5
v 0.5 4 -0.5
v 0.5 4 -1.5
v 0.5 4 -2.5
v 0.5 5 1.5
v 0.5 5 0.5
v 0.5 5 -0.5
v 0.5 5 -1.5
v 0.5 6 0.5
v 0.5 6 -0.5
v 3.5 1 2.5
v 3.5 1 1.5
v 3.5 1 -1.5
v 3.5 1 -2.5
v 3.5 2 2.5
v 3.5 2 1.5
v 3.5 2 -1.5
v 3.5 2 -2.5
v -3.5 1 3.5
v -3.5 2 3.5
v 0.5 1 3.5
v 0.5 2 3.5
v -2.5 0 2.5
v -2.5 1 2.5
v -2.5 2 2.5
v -2.5 3 2.5
v -1.5 3 2.5
v -1.5 4 2.5
v 0.5 0 2.5
v 0.5 1 2.5
v 0.5 2 2.5
v 0.5 4 2.5
v 3.5 1 2.5
v 3.5 2 2.5
v -2.5 3 1.5
v -2.5 4 1.5
v -1.5 3 1.5
v -1.5 4 1.5
v -1.5 5 1.5
v 0.5 4 1.5
v 0.5 5 1.5
v -2.5 4 0.5
v -2.5 5 0.5
v -1.5 4 0.5
v -1.5 5 0.5
v -0.5 3 0.5
v -0.5 4 0.5
v -0.5 5 0.5
v -0.5 6 0.5
v 0.5 3 0.5
v 0.5 4 0.5
v 0.5 5 0.5
v 0.5 6 0.5
v -0.5 1 -0.5
v -0.5 2 -0.5
v 0.5 1 -0.5
v 0.5 2 -0.5
v -2.5 0 -1.5
v -2.5 1 -1.5
v -0.5 1 -1.5
v -0.5 3 -1.5
v -0.5 4 -1.5
v 0.5 0 -1.5
v 0.5 1 -1.5
v 0.5 2 -1.5
v 0.5 3 -1.5
v 0.5 4 -1.5
v 3.5 1 -1.5
v 3.5 2 -1.5
v -2.5 0 1.5
v -2.5 1 1.5
v -0.5 1 1.5
v -0.5 3 1.5
v -0.5 4 1.5
v 0.5 0 1.5
v 0.5 1 1.5
v 0.5 2 1.5
v 0.5 3 1.5
v 0.5 4 1.5
v 3.5 1 1.5
v 3.5 2 1.5
v -0.5 1 0.5
v -0.5 2 0.5
v 0.5 1 0.5
v 0.5 2 0.5
v -2.5 4 -0.5
v -2.5 5 -0.5
v -1.5 4 -0.5
v -1.5 5 -0.5
v -0.5 3 -0.5
v -0.5 4 -0.5
v -0.5 5 -0.5
v -0.5 6 -0.5
v 0.5 3 -0.5
v 0.5 4 -0.5
v 0.5 5 -0.5
v 0.5 6 -0.5
v -2.5 3 -1.5
v -2.5 4 -1.5
v -1.5 3 -1.5
v -1.5 4 -1.5
v -1.5 5 -1.5
v 0.5 4 -1.5
v 0.5 5 -1.5
v -2.5 0 -2.5
v -2.5 1 -2.5
v -2.5 2 -2.5
v -2.5 3 -2.5
v -1.5 3 -2.5
v -1.5 4 -2.5
v 0.5 0 -2.5
v 0.5 1 -2.5
v 0.5 2 -2.5
v 0.5 4 -2.5
v 3.5 1 -2.5
v 3.5 2 -2.5
v -3.5 1 -3.5
v -3.5 2 -3.5
v 0.5 1 -3.5
v 0.5 2 -3.5
v -2.5 0 2.5
v 0.5 0 2.5
v -2.5 0 1.5
v 0.5 0 1.5
v -2.5 0 -1.5
v 0.5 0 -1.5
v -2.5 0 -2.5
v 0.5 0 -2.5
v -3.5 1 3.5
v 0.5 1 3.5
v -2.5 1 2.5
v 0.5 1 2.5
v 3.5 1 2.5
v -2.5 1 1.5
v -0.5 1 1.5
v 0.5 1 1.5
v 3.5 1 1.5
v -0.5 1 0.5
v 0.5 1 0.5
v -0.5 1 -0.5
v 0.5 1 -0.5
v -2.5 1 -1.5
v -0.5 1 -1.5
v 0.5 1 -1.5
v 3.5 1 -1.5
v -2.5 1 -2.5
v 0.5 1 -2.5
v 3.5 1 -2.5
v -3.5 1 -3.5
v 0.5 1 -3.5
v -0.5 2 0.5
v 0.5 2 0.5
v -0.5 2 -0.5
v 0.5 2 -0.5
v -0.5 4 1.5
v 0.5 4 1.5
v -0.5 4 0.5
v 0.5 4 0.5
v -0.5 4 -0.5
v 0.5 4 -0.5
v -0.5 4 -1.5
v 0.5 4 -1.5
v -3.5 2 3.5
v 0.5 2 3.5
v -2.5 2 2.5
v 0.5 2 2.5
v 3.5 2 2.5
v 0.5 2 1.5
v 3.5 2 1.5
v 0.5 2 -1.5
v 3.5 2 -1.5
v -2.5 2 -2.5
v 0.5 2 -2.5
v 3.5 2 -2.5
v -3.5 2 -3.5
v 0.5 2 -3.5
v -2.5 3 2.5
v -1.5 3 2.5
v -2.5 3 1.5
v -1.5 3 1.5
v -0.5 3 1.5
v 0.5 3 1.5
v -0.5 3 0.5
v 0.5 3 0.5
v -0.5 3 -0.5
v 0.5 3 -0.5
v -2.5 3 -1.5
v -1.5 3 -1.5
v -0.5 3 -1.5
v 0.5 3 -1.5
v -2.5 3 -2.5
v -1.5 3 -2.5
v -1.5 4 2.5
v 0.5 4 2.5
v -2.5 4 1.5
v -1.5 4 1.5
v 0.5 4 1.5
v -2.5 4 0.5
v -1.5 4 0.5
v -2.5 4 -0.5
v -1.5 4 -0.5
v -2.5 4 -1.5
v -1.5 4 -1.5
v 0.5 4 -1.5
v -1.5 4 -2.5
v 0.5 4 -2.5
v -1.5 5 1.5
v 0.5 5 1.5
v -2.5 5 0.5
v -1.5 5 0.5
v -0.5 5 0.5
v 0.5 5 0.5
v -2.5 5 -0.5
v -1.5 5 -0.5
v -0.5 5 -0.5
v 0.5 5 -0.5
v -1.5 5 -1.5
v 0.5 5 -1.5
v -0.5 6 0.5
v 0.5 6 0.5
v -0.5 6 -0.5
v 0.5 6 -0.5

# faces
f 3/1/1 2/1/1 1/1/1
f 4/1/1 2/1/1 3/1/1
f 9/2/1 6/2/1 5/2/1
f 10/2/1 6/2/1 9/2/1
f 11/2/1 8/2/1 7/2/1
f 12/2/1 8/2/1 11/2/1
f 15/3/1 14/3/1 13/3/1
f 16/3/1 14/3/1 15/3/1
f 17/3/1 14/3/1 16/3/1
f 18/3/1 14/3/1 17/3/1
f 19/3/1 17/3/1 16/3/1
f 20/3/1 17/3/1 19/3/1
f 21/3/1 17/3/1 20/3/1
f 22/3/1 17/3/1 21/3/1
f 23/3/1 21/3/1 20/3/1
f 24/3/1 21/3/1 23/3/1
f 29/3/1 26/3/1 25/3/1
f 30/3/1 26/3/1 29/3/1
f 33/3/1 28/3/1 27/3/1
f 34/3/1 28/3/1 33/3/1
f 35/3/1 31/3/1 30/3/1
f 36/3/1 31/3/1 35/3/1
f 37/3/1 33/3/1 32/3/1
f 38/3/1 33/3/1 37/3/1
f 41/3/1 40/3/1 39/3/1
f 42/3/1 40/3/1 41/3/1
f 43/1/2 44/1/2 45/1/2
f 45/1/2 44/1/2 46/1/2
f 47/4/2 48/4/2 51/4/2
f 51/4/2 48/4/2 52/4/2
f 49/4/2 50/4/2 53/4/2
f 53/4/2 50/4/2 54/4/2
f 55/2/2 56/2/2 60/2/2
f 60/2/2 56/2/2 61/2/2
f 57/2/2 58/2/2 64/2/2
f 64/2/2 58/2/2 65/2/2
f 59/1/2 60/1/2 67/1/2
f 67/1/2 60/1/2 68/1/2
f 61/3/2 62/3/2 69/3/2
f 69/3/2 62/3/2 70/3/2
f 63/3/2 64/3/2 71/3/2
f 71/3/2 64/3/2 72/3/2
f 65/1/2 66/1/2 73/1/2
f 73/1/2 66/1/2 74/1/2
f 71/3/2 72/3/2 75/3/2
f 72/3/2 73/3/2 75/3/2
f 69/3/2 70/3/2 75/3/2
f 70/3/2 71/3/2 75/3/2
f 68/3/2 69/3/2 75/3/2
f 75/3/2 73/3/2 76/3/2
f 76/3/2 73/3/2 77/3/2
f 77/3/2 73/3/2 78/3/2
f 68/3/2 75/3/2 79/3/2
f 79/3/2 75/3/2 80/3/2
f 76/3/2 77/3/2 81/3/2
f 81/3/2 77/3/2 82/3/2
f 78/3/2 73/3/2 83/3/2
f 83/3/2 73/3/2 84/3/2
f 81/3/2 82/3/2 85/3/2
f 82/3/2 83/3/2 85/3/2
f 80/3/2 81/3/2 85/3/2
f 85/3/2 83/3/2 86/3/2
f 86/3/2 83/3/2 87/3/2
f 87/3/2 83/3/2 88/3/2
f 86/3/2 87/3/2 89/3/2
f 89/3/2 87/3/2 90/3/2
f 91/1/2 92/1/2 95/1/2
f 95/1/2 92/1/2 96/1/2
f 93/1/2 94/1/2 97/1/2
f 97/1/2 94/1/2 98/1/2
f 101/1/3 100/1/3 99/1/3
f 102/1/3 100/1/3 101/1/3
f 107/3/3 106/3/3 105/3/3
f 109/2/3 104/2/3 103/2/3
f 110/2/3 104/2/3 109/2/3
f 111/3/3 108/3/3 107/3/3
f 111/3/3 107/3/3 105/3/3
f 112/3/3 108/3/3 111/3/3
f 113/1/3 111/1/3 110/1/3
f 114/1/3 111/1/3 113/1/3
f 117/3/3 116/3/3 115/3/3
f 118/3/3 116/3/3 117/3/3
f 120/3/3 119/3/3 118/3/3
f 121/3/3 119/3/3 120/3/3
f 124/3/3 123/3/3 122/3/3
f 125/3/3 123/3/3 124/3/3
f 130/3/3 127/3/3 126/3/3
f 131/3/3 127/3/3 130/3/3
f 132/3/3 129/3/3 128/3/3
f 133/3/3 129/3/3 132/3/3
f 136/3/3 135/3/3 134/3/3
f 137/3/3 135/3/3 136/3/3
f 140/2/3 139/2/3 138/2/3
f 143/2/3 140/2/3 138/2/3
f 144/2/3 140/2/3 143/2/3
f 146/3/3 142/3/3 141/3/3
f 147/3/3 142/3/3 146/3/3
f 148/1/3 145/1/3 144/1/3
f 149/1/3 145/1/3 148/1/3
f 150/2/4 151/2/4 152/2/4
f 150/2/4 152/2/4 155/2/4
f 155/2/4 152/2/4 156/2/4
f 153/3/4 154/3/4 158/3/4
f 158/3/4 154/3/4 159/3/4
f 156/1/4 157/1/4 160/1/4
f 160/1/4 157/1/4 161/1/4
f 162/3/4 163/3/4 164/3/4
f 164/3/4 163/3/4 165/3/4
f 166/3/4 167/3/4 168/3/4
f 168/3/4 167/3/4 169/3/4
f 170/3/4 171/3/4 174/3/4
f 174/3/4 171/3/4 175/3/4
f 172/3/4 173/3/4 176/3/4
f 176/3/4 173/3/4 177/3/4
f 178/3/4 179/3/4 180/3/4
f 180/3/4 179/3/4 181/3/4
f 181/3/4 182/3/4 183/3/4
f 183/3/4 182/3/4 184/3/4
f 187/3/4 188/3/4 189/3/4
f 185/2/4 186/2/4 191/2/4
f 191/2/4 186/2/4 192/2/4
f 189/3/4 190/3/4 193/3/4
f 187/3/4 189/3/4 193/3/4
f 193/3/4 190/3/4 194/3/4
f 192/1/4 193/1/4 195/1/4
f 195/1/4 193/1/4 196/1/4
f 197/1/4 198/1/4 199/1/4
f 199/1/4 198/1/4 200/1/4
f 203/2/5 202/2/5 201/2/5
f 204/2/5 202/2/5 203/2/5
f 207/2/5 206/2/5 205/2/5
f 208/2/5 206/2/5 207/2/5
f 211/1/5 210/1/5 209/1/5
f 212/1/5 210/1/5 211/1/5
f 214/1/5 211/1/5 209/1/5
f 216/1/5 213/1/5 212/1/5
f 217/1/5 213/1/5 216/1/5
f 218/1/5 215/1/5 214/1/5
f 218/3/5 216/3/5 215/3/5
f 219/3/5 216/3/5 218/3/5
f 220/1/5 218/1/5 214/1/5
f 222/1/5 214/1/5 209/1/5
f 222/1/5 220/1/5 214/1/5
f 223/3/5 221/3/5 220/3/5
f 223/1/5 220/1/5 222/1/5
f 224/3/5 221/3/5 223/3/5
f 226/1/5 222/1/5 209/1/5
f 227/1/5 225/1/5 224/1/5
f 228/1/5 225/1/5 227/1/5
f 229/1/5 226/1/5 209/1/5
f 229/1/5 227/1/5 226/1/5
f 230/1/5 227/1/5 229/1/5
f 233/3/5 232/3/5 231/3/5
f 234/3/5 232/3/5 233/3/5
f 237/3/5 236/3/5 235/3/5
f 238/3/5 236/3/5 237/3/5
f 241/3/5 240/3/5 239/3/5
f 242/3/5 240/3/5 241/3/5
f 243/1/6 244/1/6 245/1/6
f 245/1/6 244/1/6 246/1/6
f 246/1/6 247/1/6 248/1/6
f 248/1/6 247/1/6 249/1/6
f 243/1/6 245/1/6 252/1/6
f 250/1/6 251/1/6 253/1/6
f 253/1/6 251/1/6 254/1/6
f 243/1/6 252/1/6 255/1/6
f 252/1/6 253/1/6 255/1/6
f 255/1/6 253/1/6 256/1/6
f 257/3/6 258/3/6 259/3/6
f 259/3/6 258/3/6 260/3/6
f 261/3/6 262/3/6 263/3/6
f 263/3/6 262/3/6 264/3/6
f 265/3/6 266/3/6 269/3/6
f 269/3/6 266/3/6 270/3/6
f 267/3/6 268/3/6 271/3/6
f 271/3/6 268/3/6 272/3/6
f 273/3/6 274/3/6 276/3/6
f 276/3/6 274/3/6 277/3/6
f 275/3/6 276/3/6 278/3/6
f 278/3/6 276/3/6 279/3/6
f 280/3/6 281/3/6 282/3/6
f 282/3/6 281/3/6 283/3/6
f 283/3/6 284/3/6 285/3/6
f 285/3/6 284/3/6 286/3/6
f 287/3/6 288/3/6 290/3/6
f 290/3/6 288/3/6 291/3/6
f 291/3/6 288/3/6 292/3/6
f 289/3/6 290/3/6 293/3/6
f 290/3/6 291/3/6 293/3/6
f 293/3/6 291/3/6 294/3/6
f 294/3/6 291/3/6 295/3/6
f 295/3/6 296/3/6 297/3/6
f 294/3/6 295/3/6 297/3/6
f 297/3/6 296/3/6 298/3/6
f 299/3/6 300/3/6 301/3/6
f 301/3/6 300/3/6 302/3/6
